# xmcd
#
# Track frame offsets:
#	150
#	14843
#	31670
#	45797
#	57628
#	77668
#	92740
#	107839
#	129390
#	143300
#	157075
#
# Disc length: 2360 seconds
#
# Revision: 0
# Processed by: cddbd v1.5.1PL2 Copyright (c) Steve Scherf et al.
# Submitted via: EasyCDDAExtractor 4.6.9.1
#
DISCID=8409360b
DTITLE=Soledad - 10 AÒos de Soledad
DYEAR=2005
DGENRE=Country
TTITLE0=Una Fiesta
TTITLE1=Lejos De Ti
TTITLE2=Pa¥Todo El AÒO
TTITLE3=Yo Vendo Unos Ojos Negros
TTITLE4=Nunca Me Fui (De Chiquita)
TTITLE5=Chamarrita De Una Bailanta
TTITLE6=Quiereme Como Te Quiero Yo
TTITLE7=Si Supieras
TTITLE8=Chacarera Del Milagro
TTITLE9=Esa Musiquita
TTITLE10=Brindis
EXTD=
EXTT0=
EXTT1=
EXTT2=
EXTT3=
EXTT4=
EXTT5=
EXTT6=
EXTT7=
EXTT8=
EXTT9=
EXTT10=
PLAYORDER=
